<svg xmlns="http://www.w3.org/2000/svg" version="1.1" xmlns:xlink="http://www.w3.org/1999/xlink" width="400" height="400"><svg width="400" height="400" viewBox="0 0 400 400" fill="none" xmlns="http://www.w3.org/2000/svg">
<path d="M77.6471 49.8976L150.554 49.8976L216.118 121.193H77.6471V49.8976Z" fill="#8B172B"></path>
<path d="M21 278.985L216.118 280.558L150.03 351.853H93.3825L21 278.985Z" fill="#8B172B"></path>
<path d="M216.118 282.13V120.668L150.554 49.3734V351.853L189.368 311.487L216.118 282.13Z" fill="#B23247"></path>
<path d="M375.328 253.923L379 166.901L350.152 188.395L183.882 352L239.894 351.422L279.594 349.947L337.253 293.409L375.328 253.923Z" fill="#8B172B"></path>
<path d="M378.745 167.667L275.743 56.3657L185.067 49L375.045 253.822L378.745 167.667Z" fill="#B23247"></path>
<path d="M93.3825 351.853L54.5687 312.535L21 278.985V229.183H93.3825V351.853Z" fill="#B23247"></path>
</svg><style>@media (prefers-color-scheme: light) { :root { filter: none; } }
@media (prefers-color-scheme: dark) { :root { filter: none; } }
</style></svg>